{
	"asset":{
		"generator":"Khronos glTF Blender I/O v5.0.21",
		"version":"2.0"
	},
	"extensionsUsed":[
		"KHR_lights_punctual"
	],
	"extensionsRequired":[
		"KHR_lights_punctual"
	],
	"extensions":{
		"KHR_lights_punctual":{
			"lights":[
				{
					"color":[
						1,
						1,
						1
					],
					"intensity":79.57747154594767,
					"type":"point",
					"name":"Light"
				}
			]
		}
	},
	"scene":0,
	"scenes":[
		{
			"name":"Scene",
			"nodes":[
				0,
				1,
				34
			]
		}
	],
	"nodes":[
		{
			"extensions":{
				"KHR_lights_punctual":{
					"light":0
				}
			},
			"name":"Light",
			"rotation":[
				-0.28416627645492554,
				0.7269423007965088,
				0.34203392267227173,
				0.5232754945755005
			],
			"translation":[
				4.076245307922363,
				5.903861999511719,
				-1.0054539442062378
			]
		},
		{
			"camera":0,
			"name":"Camera",
			"rotation":[
				-0.20997299253940582,
				0.3857799470424652,
				0.09062844514846802,
				0.8937962055206299
			],
			"translation":[
				7.358891487121582,
				4.958309173583984,
				6.925790786743164
			]
		},
		{
			"mesh":0,
			"name":"Cube.008",
			"rotation":[
				0.1041315421462059,
				-0.03741638362407684,
				0.9903519153594971,
				0.0834251195192337
			],
			"scale":[
				1.0000001192092896,
				1,
				0.9999998807907104
			],
			"translation":[
				-0.0017536130035296082,
				0.077792227268219,
				-0.04249468445777893
			]
		},
		{
			"children":[
				2
			],
			"name":"Bone.005",
			"rotation":[
				-0.24306517839431763,
				0.03159227967262268,
				0.12495880573987961,
				0.9614086151123047
			],
			"scale":[
				1.0000001192092896,
				1,
				1
			],
			"translation":[
				7.450580596923828e-09,
				0.18124692142009735,
				2.041693747401041e-08
			]
		},
		{
			"mesh":1,
			"name":"Cube.004",
			"rotation":[
				-0.0817270278930664,
				-0.051094505935907364,
				-0.9952812194824219,
				0.011197363026440144
			],
			"scale":[
				1.0000001192092896,
				0.9999998807907104,
				0.9999998807907104
			],
			"translation":[
				-0.01043608970940113,
				0.11297500133514404,
				-0.028372708708047867
			]
		},
		{
			"children":[
				3,
				4
			],
			"name":"Bone.004",
			"rotation":[
				0.4383121132850647,
				-0.00571410870179534,
				-0.28806546330451965,
				0.8513919115066528
			],
			"scale":[
				1,
				0.9999999403953552,
				1
			],
			"translation":[
				1.746834499272154e-08,
				0.1605827808380127,
				2.60770320892334e-08
			]
		},
		{
			"mesh":2,
			"name":"Cube.002",
			"rotation":[
				-0.19547881186008453,
				0.048332199454307556,
				-0.972341001033783,
				0.11834309250116348
			],
			"scale":[
				1.0000001192092896,
				1.0000001192092896,
				1
			],
			"translation":[
				-0.023375628516077995,
				0.13837003707885742,
				0.021504491567611694
			]
		},
		{
			"children":[
				5,
				6
			],
			"name":"Bone.003",
			"rotation":[
				-0.18611851334571838,
				0.09164313971996307,
				-0.3524199426174164,
				0.9125577211380005
			],
			"scale":[
				1,
				0.9999999403953552,
				1
			],
			"translation":[
				-5.960464477539063e-08,
				0.2911252975463867,
				3.552713678800501e-15
			]
		},
		{
			"children":[
				7
			],
			"name":"Bone.001",
			"rotation":[
				-0.01881103776395321,
				0.018810981884598732,
				-0.7068565487861633,
				0.7068565487861633
			],
			"scale":[
				0.9999999403953552,
				0.9999999403953552,
				1
			],
			"translation":[
				0,
				0.4185737371444702,
				0
			]
		},
		{
			"mesh":3,
			"name":"Cube.015",
			"rotation":[
				-0.11051447689533234,
				-0.005471935495734215,
				-0.9463686943054199,
				0.3035505712032318
			],
			"scale":[
				1,
				1.0000001192092896,
				1
			],
			"translation":[
				-0.9149936437606812,
				-0.23335276544094086,
				-0.04249439761042595
			]
		},
		{
			"children":[
				9
			],
			"name":"Bone.008",
			"rotation":[
				-0.1971285045146942,
				0.006066273432224989,
				0.030154552310705185,
				0.9798950552940369
			],
			"translation":[
				4.470347647611561e-08,
				0.2227596938610077,
				-1.6535922853222473e-08
			]
		},
		{
			"mesh":4,
			"name":"Cube.014",
			"rotation":[
				-0.189360111951828,
				-0.02217264659702778,
				-0.9400359392166138,
				0.2828137278556824
			],
			"scale":[
				1.000000238418579,
				1.000000238418579,
				0.9999999403953552
			],
			"translation":[
				-0.82196444272995,
				-0.1532515287399292,
				0.09541408717632294
			]
		},
		{
			"children":[
				10,
				11
			],
			"name":"Bone.007",
			"rotation":[
				0.37334680557250977,
				-0.0010275179520249367,
				0.2888871729373932,
				0.8815641403198242
			],
			"scale":[
				0.9999998807907104,
				0.9999998807907104,
				0.9999999403953552
			],
			"translation":[
				2.95801072525137e-08,
				0.1796741485595703,
				7.450580596923828e-09
			]
		},
		{
			"mesh":5,
			"name":"Cube.013",
			"rotation":[
				0.15250633656978607,
				-0.16032195091247559,
				-0.5990185737609863,
				0.769555389881134
			],
			"scale":[
				0.9999998211860657,
				1,
				0.9999999403953552
			],
			"translation":[
				-0.4631524980068207,
				-0.43643516302108765,
				-0.23188036680221558
			]
		},
		{
			"children":[
				12,
				13
			],
			"name":"Bone.006",
			"rotation":[
				-0.1627778857946396,
				-0.07468383014202118,
				0.3173772096633911,
				0.9312343597412109
			],
			"scale":[
				0.9999999403953552,
				1,
				1
			],
			"translation":[
				4.021671884402167e-11,
				0.26683509349823,
				8.149072527885437e-10
			]
		},
		{
			"children":[
				14
			],
			"name":"Bone.002",
			"rotation":[
				-0.02083631232380867,
				-0.020208431407809258,
				0.6959113478660583,
				0.7175408601760864
			],
			"scale":[
				0.9999999403953552,
				1,
				1
			],
			"translation":[
				0,
				0.4185737371444702,
				0
			]
		},
		{
			"mesh":6,
			"name":"Cube.007",
			"rotation":[
				-0.20558543503284454,
				0,
				0,
				0.9786392450332642
			],
			"translation":[
				0,
				-0.3015809953212738,
				0.20648787915706635
			]
		},
		{
			"mesh":7,
			"name":"Cube.009",
			"translation":[
				0.005433891899883747,
				-0.7498769164085388,
				0.2151820957660675
			]
		},
		{
			"mesh":8,
			"name":"Cube.010",
			"translation":[
				0.005433891899883747,
				-0.7498769164085388,
				0.2151820957660675
			]
		},
		{
			"mesh":9,
			"name":"Cube.011",
			"translation":[
				0.005433891899883747,
				-0.7498769164085388,
				0
			]
		},
		{
			"mesh":10,
			"name":"Cube.012",
			"rotation":[
				0,
				0,
				-0.0379241406917572,
				0.9992806315422058
			],
			"scale":[
				0.1643323302268982,
				0.1643323302268982,
				0.1643323302268982
			],
			"translation":[
				0.00648661982268095,
				0.20171624422073364,
				0
			]
		},
		{
			"children":[
				16,
				17,
				18,
				19,
				20
			],
			"mesh":11,
			"name":"Cube.006",
			"rotation":[
				-6.717942113709796e-08,
				0,
				0,
				1
			],
			"translation":[
				-0.005433891899883747,
				0.3313031792640686,
				-1.0564264130152878e-08
			]
		},
		{
			"children":[
				21
			],
			"name":"Bone.013",
			"rotation":[
				6.717942113709796e-08,
				0,
				0,
				1
			],
			"translation":[
				0,
				0.4185737371444702,
				0
			]
		},
		{
			"mesh":12,
			"name":"Cube.005",
			"translation":[
				0,
				0.21735569834709167,
				0
			]
		},
		{
			"children":[
				23
			],
			"mesh":13,
			"name":"Cube",
			"translation":[
				0,
				0.27984532713890076,
				0
			]
		},
		{
			"children":[
				8,
				15,
				22,
				24
			],
			"name":"Bone"
		},
		{
			"mesh":14,
			"name":"Cube.003",
			"rotation":[
				-4.883755536866374e-06,
				7.571357230062858e-08,
				-0.9999986886978149,
				0.0016127547714859247
			],
			"scale":[
				1,
				1,
				1.0000001192092896
			],
			"translation":[
				-0.08122371137142181,
				0.1485157459974289,
				9.28160261537414e-07
			]
		},
		{
			"children":[
				26
			],
			"name":"Bone.010",
			"rotation":[
				-6.100573841649748e-07,
				2.0498145403280432e-08,
				-0.09461095184087753,
				0.9955143332481384
			],
			"scale":[
				1,
				1.0000001192092896,
				1
			],
			"translation":[
				7.449187933161738e-09,
				0.2112075835466385,
				-8.526512829121202e-14
			]
		},
		{
			"mesh":15,
			"name":"Cube.001",
			"rotation":[
				-4.862600235355785e-06,
				5.520762442756677e-07,
				-0.9993941187858582,
				0.034805409610271454
			],
			"scale":[
				1.0000001192092896,
				1.0000001192092896,
				1.0000001192092896
			],
			"translation":[
				-0.0542432963848114,
				0.12329687923192978,
				6.07601691626769e-07
			]
		},
		{
			"children":[
				27,
				28
			],
			"name":"Bone.009",
			"rotation":[
				-4.8531542233831715e-06,
				-3.8282121295196703e-07,
				-0.9877117276191711,
				0.15628686547279358
			],
			"scale":[
				1,
				0.9999999403953552,
				0.9999999403953552
			],
			"translation":[
				0.13041341304779053,
				0.12497948855161667,
				1.679209837845974e-08
			]
		},
		{
			"mesh":16,
			"name":"Cube.017",
			"rotation":[
				6.0447041505540255e-06,
				-4.662810795252881e-07,
				-0.9963977932929993,
				0.0848025232553482
			],
			"scale":[
				1.0000001192092896,
				1.000000238418579,
				1
			],
			"translation":[
				-0.49278756976127625,
				0.11387541145086288,
				-5.847773536515888e-06
			]
		},
		{
			"children":[
				30
			],
			"name":"Bone.012",
			"rotation":[
				-1.1387562608433655e-06,
				-6.178790812327861e-08,
				0.12060141563415527,
				0.99270099401474
			],
			"translation":[
				-1.1174104308508959e-08,
				0.20361341536045074,
				-3.126388037344441e-13
			]
		},
		{
			"mesh":17,
			"name":"Cube.016",
			"rotation":[
				5.8491609706834424e-06,
				-1.6383595493607572e-06,
				-0.9448196887969971,
				0.32759085297584534
			],
			"scale":[
				1.0000001192092896,
				1.0000001192092896,
				1.0000001192092896
			],
			"translation":[
				-0.367546021938324,
				-0.011059453710913658,
				-4.48547280029743e-06
			]
		},
		{
			"children":[
				31,
				32
			],
			"name":"Bone.011",
			"rotation":[
				-6.069526989449514e-06,
				4.873308512287622e-07,
				0.9899334907531738,
				0.14153312146663666
			],
			"scale":[
				1,
				0.9999998211860657,
				0.9999999403953552
			],
			"translation":[
				-0.1358473002910614,
				0.11682865023612976,
				1.569696195247161e-08
			]
		},
		{
			"children":[
				25,
				29,
				33
			],
			"name":"Armature"
		}
	],
	"cameras":[
		{
			"name":"Camera",
			"perspective":{
				"aspectRatio":1.7777777777777777,
				"yfov":0.39959648408210363,
				"zfar":100,
				"znear":0.10000000149011612
			},
			"type":"perspective"
		}
	],
	"animations":[
		{
			"channels":[
				{
					"sampler":0,
					"target":{
						"node":25,
						"path":"translation"
					}
				},
				{
					"sampler":1,
					"target":{
						"node":25,
						"path":"rotation"
					}
				},
				{
					"sampler":2,
					"target":{
						"node":25,
						"path":"scale"
					}
				},
				{
					"sampler":3,
					"target":{
						"node":8,
						"path":"translation"
					}
				},
				{
					"sampler":4,
					"target":{
						"node":8,
						"path":"rotation"
					}
				},
				{
					"sampler":5,
					"target":{
						"node":8,
						"path":"scale"
					}
				},
				{
					"sampler":6,
					"target":{
						"node":7,
						"path":"translation"
					}
				},
				{
					"sampler":7,
					"target":{
						"node":7,
						"path":"rotation"
					}
				},
				{
					"sampler":8,
					"target":{
						"node":7,
						"path":"scale"
					}
				},
				{
					"sampler":9,
					"target":{
						"node":5,
						"path":"translation"
					}
				},
				{
					"sampler":10,
					"target":{
						"node":5,
						"path":"rotation"
					}
				},
				{
					"sampler":11,
					"target":{
						"node":5,
						"path":"scale"
					}
				},
				{
					"sampler":12,
					"target":{
						"node":3,
						"path":"translation"
					}
				},
				{
					"sampler":13,
					"target":{
						"node":3,
						"path":"rotation"
					}
				},
				{
					"sampler":14,
					"target":{
						"node":3,
						"path":"scale"
					}
				},
				{
					"sampler":15,
					"target":{
						"node":15,
						"path":"translation"
					}
				},
				{
					"sampler":16,
					"target":{
						"node":15,
						"path":"rotation"
					}
				},
				{
					"sampler":17,
					"target":{
						"node":15,
						"path":"scale"
					}
				},
				{
					"sampler":18,
					"target":{
						"node":14,
						"path":"translation"
					}
				},
				{
					"sampler":19,
					"target":{
						"node":14,
						"path":"rotation"
					}
				},
				{
					"sampler":20,
					"target":{
						"node":14,
						"path":"scale"
					}
				},
				{
					"sampler":21,
					"target":{
						"node":12,
						"path":"translation"
					}
				},
				{
					"sampler":22,
					"target":{
						"node":12,
						"path":"rotation"
					}
				},
				{
					"sampler":23,
					"target":{
						"node":12,
						"path":"scale"
					}
				},
				{
					"sampler":24,
					"target":{
						"node":10,
						"path":"translation"
					}
				},
				{
					"sampler":25,
					"target":{
						"node":10,
						"path":"rotation"
					}
				},
				{
					"sampler":26,
					"target":{
						"node":10,
						"path":"scale"
					}
				},
				{
					"sampler":27,
					"target":{
						"node":22,
						"path":"translation"
					}
				},
				{
					"sampler":28,
					"target":{
						"node":22,
						"path":"rotation"
					}
				},
				{
					"sampler":29,
					"target":{
						"node":22,
						"path":"scale"
					}
				},
				{
					"sampler":30,
					"target":{
						"node":29,
						"path":"translation"
					}
				},
				{
					"sampler":31,
					"target":{
						"node":29,
						"path":"rotation"
					}
				},
				{
					"sampler":32,
					"target":{
						"node":29,
						"path":"scale"
					}
				},
				{
					"sampler":33,
					"target":{
						"node":27,
						"path":"translation"
					}
				},
				{
					"sampler":34,
					"target":{
						"node":27,
						"path":"rotation"
					}
				},
				{
					"sampler":35,
					"target":{
						"node":27,
						"path":"scale"
					}
				},
				{
					"sampler":36,
					"target":{
						"node":33,
						"path":"translation"
					}
				},
				{
					"sampler":37,
					"target":{
						"node":33,
						"path":"rotation"
					}
				},
				{
					"sampler":38,
					"target":{
						"node":33,
						"path":"scale"
					}
				},
				{
					"sampler":39,
					"target":{
						"node":31,
						"path":"translation"
					}
				},
				{
					"sampler":40,
					"target":{
						"node":31,
						"path":"rotation"
					}
				},
				{
					"sampler":41,
					"target":{
						"node":31,
						"path":"scale"
					}
				}
			],
			"name":"idle",
			"samplers":[
				{
					"input":89,
					"interpolation":"STEP",
					"output":90
				},
				{
					"input":89,
					"interpolation":"STEP",
					"output":91
				},
				{
					"input":89,
					"interpolation":"STEP",
					"output":92
				},
				{
					"input":89,
					"interpolation":"STEP",
					"output":93
				},
				{
					"input":89,
					"interpolation":"STEP",
					"output":94
				},
				{
					"input":89,
					"interpolation":"STEP",
					"output":95
				},
				{
					"input":89,
					"interpolation":"STEP",
					"output":96
				},
				{
					"input":89,
					"interpolation":"STEP",
					"output":97
				},
				{
					"input":89,
					"interpolation":"STEP",
					"output":98
				},
				{
					"input":89,
					"interpolation":"STEP",
					"output":99
				},
				{
					"input":89,
					"interpolation":"STEP",
					"output":100
				},
				{
					"input":89,
					"interpolation":"STEP",
					"output":101
				},
				{
					"input":89,
					"interpolation":"STEP",
					"output":102
				},
				{
					"input":89,
					"interpolation":"STEP",
					"output":103
				},
				{
					"input":89,
					"interpolation":"STEP",
					"output":104
				},
				{
					"input":89,
					"interpolation":"STEP",
					"output":105
				},
				{
					"input":89,
					"interpolation":"STEP",
					"output":106
				},
				{
					"input":89,
					"interpolation":"STEP",
					"output":107
				},
				{
					"input":89,
					"interpolation":"STEP",
					"output":108
				},
				{
					"input":89,
					"interpolation":"STEP",
					"output":109
				},
				{
					"input":89,
					"interpolation":"STEP",
					"output":107
				},
				{
					"input":89,
					"interpolation":"STEP",
					"output":110
				},
				{
					"input":89,
					"interpolation":"STEP",
					"output":111
				},
				{
					"input":89,
					"interpolation":"STEP",
					"output":112
				},
				{
					"input":89,
					"interpolation":"STEP",
					"output":113
				},
				{
					"input":89,
					"interpolation":"STEP",
					"output":114
				},
				{
					"input":89,
					"interpolation":"STEP",
					"output":115
				},
				{
					"input":89,
					"interpolation":"STEP",
					"output":116
				},
				{
					"input":89,
					"interpolation":"STEP",
					"output":117
				},
				{
					"input":89,
					"interpolation":"STEP",
					"output":92
				},
				{
					"input":89,
					"interpolation":"STEP",
					"output":118
				},
				{
					"input":89,
					"interpolation":"STEP",
					"output":119
				},
				{
					"input":89,
					"interpolation":"STEP",
					"output":120
				},
				{
					"input":89,
					"interpolation":"STEP",
					"output":121
				},
				{
					"input":89,
					"interpolation":"STEP",
					"output":122
				},
				{
					"input":89,
					"interpolation":"STEP",
					"output":92
				},
				{
					"input":89,
					"interpolation":"STEP",
					"output":123
				},
				{
					"input":89,
					"interpolation":"STEP",
					"output":124
				},
				{
					"input":89,
					"interpolation":"STEP",
					"output":125
				},
				{
					"input":89,
					"interpolation":"STEP",
					"output":126
				},
				{
					"input":89,
					"interpolation":"STEP",
					"output":127
				},
				{
					"input":89,
					"interpolation":"STEP",
					"output":92
				}
			]
		},
		{
			"channels":[
				{
					"sampler":0,
					"target":{
						"node":25,
						"path":"translation"
					}
				},
				{
					"sampler":1,
					"target":{
						"node":25,
						"path":"rotation"
					}
				},
				{
					"sampler":2,
					"target":{
						"node":25,
						"path":"scale"
					}
				},
				{
					"sampler":3,
					"target":{
						"node":8,
						"path":"translation"
					}
				},
				{
					"sampler":4,
					"target":{
						"node":8,
						"path":"rotation"
					}
				},
				{
					"sampler":5,
					"target":{
						"node":8,
						"path":"scale"
					}
				},
				{
					"sampler":6,
					"target":{
						"node":7,
						"path":"translation"
					}
				},
				{
					"sampler":7,
					"target":{
						"node":7,
						"path":"rotation"
					}
				},
				{
					"sampler":8,
					"target":{
						"node":7,
						"path":"scale"
					}
				},
				{
					"sampler":9,
					"target":{
						"node":5,
						"path":"translation"
					}
				},
				{
					"sampler":10,
					"target":{
						"node":5,
						"path":"rotation"
					}
				},
				{
					"sampler":11,
					"target":{
						"node":5,
						"path":"scale"
					}
				},
				{
					"sampler":12,
					"target":{
						"node":3,
						"path":"translation"
					}
				},
				{
					"sampler":13,
					"target":{
						"node":3,
						"path":"rotation"
					}
				},
				{
					"sampler":14,
					"target":{
						"node":3,
						"path":"scale"
					}
				},
				{
					"sampler":15,
					"target":{
						"node":15,
						"path":"translation"
					}
				},
				{
					"sampler":16,
					"target":{
						"node":15,
						"path":"rotation"
					}
				},
				{
					"sampler":17,
					"target":{
						"node":15,
						"path":"scale"
					}
				},
				{
					"sampler":18,
					"target":{
						"node":14,
						"path":"translation"
					}
				},
				{
					"sampler":19,
					"target":{
						"node":14,
						"path":"rotation"
					}
				},
				{
					"sampler":20,
					"target":{
						"node":14,
						"path":"scale"
					}
				},
				{
					"sampler":21,
					"target":{
						"node":12,
						"path":"translation"
					}
				},
				{
					"sampler":22,
					"target":{
						"node":12,
						"path":"rotation"
					}
				},
				{
					"sampler":23,
					"target":{
						"node":12,
						"path":"scale"
					}
				},
				{
					"sampler":24,
					"target":{
						"node":10,
						"path":"translation"
					}
				},
				{
					"sampler":25,
					"target":{
						"node":10,
						"path":"rotation"
					}
				},
				{
					"sampler":26,
					"target":{
						"node":10,
						"path":"scale"
					}
				},
				{
					"sampler":27,
					"target":{
						"node":22,
						"path":"translation"
					}
				},
				{
					"sampler":28,
					"target":{
						"node":22,
						"path":"rotation"
					}
				},
				{
					"sampler":29,
					"target":{
						"node":22,
						"path":"scale"
					}
				},
				{
					"sampler":30,
					"target":{
						"node":29,
						"path":"translation"
					}
				},
				{
					"sampler":31,
					"target":{
						"node":29,
						"path":"rotation"
					}
				},
				{
					"sampler":32,
					"target":{
						"node":29,
						"path":"scale"
					}
				},
				{
					"sampler":33,
					"target":{
						"node":27,
						"path":"translation"
					}
				},
				{
					"sampler":34,
					"target":{
						"node":27,
						"path":"rotation"
					}
				},
				{
					"sampler":35,
					"target":{
						"node":27,
						"path":"scale"
					}
				},
				{
					"sampler":36,
					"target":{
						"node":33,
						"path":"translation"
					}
				},
				{
					"sampler":37,
					"target":{
						"node":33,
						"path":"rotation"
					}
				},
				{
					"sampler":38,
					"target":{
						"node":33,
						"path":"scale"
					}
				},
				{
					"sampler":39,
					"target":{
						"node":31,
						"path":"translation"
					}
				},
				{
					"sampler":40,
					"target":{
						"node":31,
						"path":"rotation"
					}
				},
				{
					"sampler":41,
					"target":{
						"node":31,
						"path":"scale"
					}
				}
			],
			"name":"jump",
			"samplers":[
				{
					"input":128,
					"interpolation":"STEP",
					"output":90
				},
				{
					"input":128,
					"interpolation":"STEP",
					"output":91
				},
				{
					"input":128,
					"interpolation":"STEP",
					"output":92
				},
				{
					"input":128,
					"interpolation":"STEP",
					"output":93
				},
				{
					"input":128,
					"interpolation":"STEP",
					"output":94
				},
				{
					"input":128,
					"interpolation":"STEP",
					"output":95
				},
				{
					"input":128,
					"interpolation":"STEP",
					"output":96
				},
				{
					"input":129,
					"interpolation":"LINEAR",
					"output":130
				},
				{
					"input":128,
					"interpolation":"STEP",
					"output":98
				},
				{
					"input":128,
					"interpolation":"STEP",
					"output":99
				},
				{
					"input":128,
					"interpolation":"STEP",
					"output":100
				},
				{
					"input":128,
					"interpolation":"STEP",
					"output":101
				},
				{
					"input":128,
					"interpolation":"STEP",
					"output":102
				},
				{
					"input":128,
					"interpolation":"STEP",
					"output":103
				},
				{
					"input":128,
					"interpolation":"STEP",
					"output":104
				},
				{
					"input":128,
					"interpolation":"STEP",
					"output":105
				},
				{
					"input":128,
					"interpolation":"STEP",
					"output":106
				},
				{
					"input":128,
					"interpolation":"STEP",
					"output":107
				},
				{
					"input":128,
					"interpolation":"STEP",
					"output":108
				},
				{
					"input":129,
					"interpolation":"LINEAR",
					"output":131
				},
				{
					"input":128,
					"interpolation":"STEP",
					"output":107
				},
				{
					"input":128,
					"interpolation":"STEP",
					"output":110
				},
				{
					"input":128,
					"interpolation":"STEP",
					"output":111
				},
				{
					"input":128,
					"interpolation":"STEP",
					"output":112
				},
				{
					"input":128,
					"interpolation":"STEP",
					"output":113
				},
				{
					"input":128,
					"interpolation":"STEP",
					"output":114
				},
				{
					"input":128,
					"interpolation":"STEP",
					"output":115
				},
				{
					"input":128,
					"interpolation":"STEP",
					"output":116
				},
				{
					"input":128,
					"interpolation":"STEP",
					"output":117
				},
				{
					"input":128,
					"interpolation":"STEP",
					"output":92
				},
				{
					"input":129,
					"interpolation":"LINEAR",
					"output":132
				},
				{
					"input":129,
					"interpolation":"LINEAR",
					"output":133
				},
				{
					"input":128,
					"interpolation":"STEP",
					"output":120
				},
				{
					"input":128,
					"interpolation":"STEP",
					"output":121
				},
				{
					"input":128,
					"interpolation":"STEP",
					"output":122
				},
				{
					"input":128,
					"interpolation":"STEP",
					"output":92
				},
				{
					"input":129,
					"interpolation":"LINEAR",
					"output":134
				},
				{
					"input":129,
					"interpolation":"LINEAR",
					"output":135
				},
				{
					"input":128,
					"interpolation":"STEP",
					"output":125
				},
				{
					"input":128,
					"interpolation":"STEP",
					"output":126
				},
				{
					"input":128,
					"interpolation":"STEP",
					"output":127
				},
				{
					"input":128,
					"interpolation":"STEP",
					"output":92
				}
			]
		},
		{
			"channels":[
				{
					"sampler":0,
					"target":{
						"node":25,
						"path":"translation"
					}
				},
				{
					"sampler":1,
					"target":{
						"node":25,
						"path":"rotation"
					}
				},
				{
					"sampler":2,
					"target":{
						"node":25,
						"path":"scale"
					}
				},
				{
					"sampler":3,
					"target":{
						"node":8,
						"path":"translation"
					}
				},
				{
					"sampler":4,
					"target":{
						"node":8,
						"path":"rotation"
					}
				},
				{
					"sampler":5,
					"target":{
						"node":8,
						"path":"scale"
					}
				},
				{
					"sampler":6,
					"target":{
						"node":7,
						"path":"translation"
					}
				},
				{
					"sampler":7,
					"target":{
						"node":7,
						"path":"rotation"
					}
				},
				{
					"sampler":8,
					"target":{
						"node":7,
						"path":"scale"
					}
				},
				{
					"sampler":9,
					"target":{
						"node":5,
						"path":"translation"
					}
				},
				{
					"sampler":10,
					"target":{
						"node":5,
						"path":"rotation"
					}
				},
				{
					"sampler":11,
					"target":{
						"node":5,
						"path":"scale"
					}
				},
				{
					"sampler":12,
					"target":{
						"node":3,
						"path":"translation"
					}
				},
				{
					"sampler":13,
					"target":{
						"node":3,
						"path":"rotation"
					}
				},
				{
					"sampler":14,
					"target":{
						"node":3,
						"path":"scale"
					}
				},
				{
					"sampler":15,
					"target":{
						"node":15,
						"path":"translation"
					}
				},
				{
					"sampler":16,
					"target":{
						"node":15,
						"path":"rotation"
					}
				},
				{
					"sampler":17,
					"target":{
						"node":15,
						"path":"scale"
					}
				},
				{
					"sampler":18,
					"target":{
						"node":14,
						"path":"translation"
					}
				},
				{
					"sampler":19,
					"target":{
						"node":14,
						"path":"rotation"
					}
				},
				{
					"sampler":20,
					"target":{
						"node":14,
						"path":"scale"
					}
				},
				{
					"sampler":21,
					"target":{
						"node":12,
						"path":"translation"
					}
				},
				{
					"sampler":22,
					"target":{
						"node":12,
						"path":"rotation"
					}
				},
				{
					"sampler":23,
					"target":{
						"node":12,
						"path":"scale"
					}
				},
				{
					"sampler":24,
					"target":{
						"node":10,
						"path":"translation"
					}
				},
				{
					"sampler":25,
					"target":{
						"node":10,
						"path":"rotation"
					}
				},
				{
					"sampler":26,
					"target":{
						"node":10,
						"path":"scale"
					}
				},
				{
					"sampler":27,
					"target":{
						"node":22,
						"path":"translation"
					}
				},
				{
					"sampler":28,
					"target":{
						"node":22,
						"path":"rotation"
					}
				},
				{
					"sampler":29,
					"target":{
						"node":22,
						"path":"scale"
					}
				},
				{
					"sampler":30,
					"target":{
						"node":29,
						"path":"translation"
					}
				},
				{
					"sampler":31,
					"target":{
						"node":29,
						"path":"rotation"
					}
				},
				{
					"sampler":32,
					"target":{
						"node":29,
						"path":"scale"
					}
				},
				{
					"sampler":33,
					"target":{
						"node":27,
						"path":"translation"
					}
				},
				{
					"sampler":34,
					"target":{
						"node":27,
						"path":"rotation"
					}
				},
				{
					"sampler":35,
					"target":{
						"node":27,
						"path":"scale"
					}
				},
				{
					"sampler":36,
					"target":{
						"node":33,
						"path":"translation"
					}
				},
				{
					"sampler":37,
					"target":{
						"node":33,
						"path":"rotation"
					}
				},
				{
					"sampler":38,
					"target":{
						"node":33,
						"path":"scale"
					}
				},
				{
					"sampler":39,
					"target":{
						"node":31,
						"path":"translation"
					}
				},
				{
					"sampler":40,
					"target":{
						"node":31,
						"path":"rotation"
					}
				},
				{
					"sampler":41,
					"target":{
						"node":31,
						"path":"scale"
					}
				}
			],
			"name":"melee_attack",
			"samplers":[
				{
					"input":89,
					"interpolation":"STEP",
					"output":90
				},
				{
					"input":136,
					"interpolation":"LINEAR",
					"output":137
				},
				{
					"input":89,
					"interpolation":"STEP",
					"output":92
				},
				{
					"input":89,
					"interpolation":"STEP",
					"output":93
				},
				{
					"input":89,
					"interpolation":"STEP",
					"output":94
				},
				{
					"input":89,
					"interpolation":"STEP",
					"output":95
				},
				{
					"input":89,
					"interpolation":"STEP",
					"output":96
				},
				{
					"input":136,
					"interpolation":"LINEAR",
					"output":138
				},
				{
					"input":89,
					"interpolation":"STEP",
					"output":98
				},
				{
					"input":89,
					"interpolation":"STEP",
					"output":99
				},
				{
					"input":136,
					"interpolation":"LINEAR",
					"output":139
				},
				{
					"input":89,
					"interpolation":"STEP",
					"output":101
				},
				{
					"input":89,
					"interpolation":"STEP",
					"output":102
				},
				{
					"input":89,
					"interpolation":"STEP",
					"output":103
				},
				{
					"input":89,
					"interpolation":"STEP",
					"output":104
				},
				{
					"input":89,
					"interpolation":"STEP",
					"output":105
				},
				{
					"input":89,
					"interpolation":"STEP",
					"output":106
				},
				{
					"input":89,
					"interpolation":"STEP",
					"output":107
				},
				{
					"input":89,
					"interpolation":"STEP",
					"output":108
				},
				{
					"input":136,
					"interpolation":"LINEAR",
					"output":140
				},
				{
					"input":89,
					"interpolation":"STEP",
					"output":107
				},
				{
					"input":89,
					"interpolation":"STEP",
					"output":110
				},
				{
					"input":136,
					"interpolation":"LINEAR",
					"output":141
				},
				{
					"input":89,
					"interpolation":"STEP",
					"output":112
				},
				{
					"input":89,
					"interpolation":"STEP",
					"output":113
				},
				{
					"input":136,
					"interpolation":"LINEAR",
					"output":142
				},
				{
					"input":89,
					"interpolation":"STEP",
					"output":115
				},
				{
					"input":89,
					"interpolation":"STEP",
					"output":116
				},
				{
					"input":89,
					"interpolation":"STEP",
					"output":117
				},
				{
					"input":89,
					"interpolation":"STEP",
					"output":92
				},
				{
					"input":89,
					"interpolation":"STEP",
					"output":118
				},
				{
					"input":89,
					"interpolation":"STEP",
					"output":119
				},
				{
					"input":89,
					"interpolation":"STEP",
					"output":120
				},
				{
					"input":89,
					"interpolation":"STEP",
					"output":121
				},
				{
					"input":89,
					"interpolation":"STEP",
					"output":122
				},
				{
					"input":89,
					"interpolation":"STEP",
					"output":92
				},
				{
					"input":89,
					"interpolation":"STEP",
					"output":123
				},
				{
					"input":89,
					"interpolation":"STEP",
					"output":124
				},
				{
					"input":89,
					"interpolation":"STEP",
					"output":125
				},
				{
					"input":89,
					"interpolation":"STEP",
					"output":126
				},
				{
					"input":89,
					"interpolation":"STEP",
					"output":127
				},
				{
					"input":89,
					"interpolation":"STEP",
					"output":92
				}
			]
		},
		{
			"channels":[
				{
					"sampler":0,
					"target":{
						"node":25,
						"path":"translation"
					}
				},
				{
					"sampler":1,
					"target":{
						"node":25,
						"path":"rotation"
					}
				},
				{
					"sampler":2,
					"target":{
						"node":25,
						"path":"scale"
					}
				},
				{
					"sampler":3,
					"target":{
						"node":8,
						"path":"translation"
					}
				},
				{
					"sampler":4,
					"target":{
						"node":8,
						"path":"rotation"
					}
				},
				{
					"sampler":5,
					"target":{
						"node":8,
						"path":"scale"
					}
				},
				{
					"sampler":6,
					"target":{
						"node":7,
						"path":"translation"
					}
				},
				{
					"sampler":7,
					"target":{
						"node":7,
						"path":"rotation"
					}
				},
				{
					"sampler":8,
					"target":{
						"node":7,
						"path":"scale"
					}
				},
				{
					"sampler":9,
					"target":{
						"node":5,
						"path":"translation"
					}
				},
				{
					"sampler":10,
					"target":{
						"node":5,
						"path":"rotation"
					}
				},
				{
					"sampler":11,
					"target":{
						"node":5,
						"path":"scale"
					}
				},
				{
					"sampler":12,
					"target":{
						"node":3,
						"path":"translation"
					}
				},
				{
					"sampler":13,
					"target":{
						"node":3,
						"path":"rotation"
					}
				},
				{
					"sampler":14,
					"target":{
						"node":3,
						"path":"scale"
					}
				},
				{
					"sampler":15,
					"target":{
						"node":15,
						"path":"translation"
					}
				},
				{
					"sampler":16,
					"target":{
						"node":15,
						"path":"rotation"
					}
				},
				{
					"sampler":17,
					"target":{
						"node":15,
						"path":"scale"
					}
				},
				{
					"sampler":18,
					"target":{
						"node":14,
						"path":"translation"
					}
				},
				{
					"sampler":19,
					"target":{
						"node":14,
						"path":"rotation"
					}
				},
				{
					"sampler":20,
					"target":{
						"node":14,
						"path":"scale"
					}
				},
				{
					"sampler":21,
					"target":{
						"node":12,
						"path":"translation"
					}
				},
				{
					"sampler":22,
					"target":{
						"node":12,
						"path":"rotation"
					}
				},
				{
					"sampler":23,
					"target":{
						"node":12,
						"path":"scale"
					}
				},
				{
					"sampler":24,
					"target":{
						"node":10,
						"path":"translation"
					}
				},
				{
					"sampler":25,
					"target":{
						"node":10,
						"path":"rotation"
					}
				},
				{
					"sampler":26,
					"target":{
						"node":10,
						"path":"scale"
					}
				},
				{
					"sampler":27,
					"target":{
						"node":22,
						"path":"translation"
					}
				},
				{
					"sampler":28,
					"target":{
						"node":22,
						"path":"rotation"
					}
				},
				{
					"sampler":29,
					"target":{
						"node":22,
						"path":"scale"
					}
				},
				{
					"sampler":30,
					"target":{
						"node":29,
						"path":"translation"
					}
				},
				{
					"sampler":31,
					"target":{
						"node":29,
						"path":"rotation"
					}
				},
				{
					"sampler":32,
					"target":{
						"node":29,
						"path":"scale"
					}
				},
				{
					"sampler":33,
					"target":{
						"node":27,
						"path":"translation"
					}
				},
				{
					"sampler":34,
					"target":{
						"node":27,
						"path":"rotation"
					}
				},
				{
					"sampler":35,
					"target":{
						"node":27,
						"path":"scale"
					}
				},
				{
					"sampler":36,
					"target":{
						"node":33,
						"path":"translation"
					}
				},
				{
					"sampler":37,
					"target":{
						"node":33,
						"path":"rotation"
					}
				},
				{
					"sampler":38,
					"target":{
						"node":33,
						"path":"scale"
					}
				},
				{
					"sampler":39,
					"target":{
						"node":31,
						"path":"translation"
					}
				},
				{
					"sampler":40,
					"target":{
						"node":31,
						"path":"rotation"
					}
				},
				{
					"sampler":41,
					"target":{
						"node":31,
						"path":"scale"
					}
				}
			],
			"name":"run",
			"samplers":[
				{
					"input":143,
					"interpolation":"STEP",
					"output":90
				},
				{
					"input":144,
					"interpolation":"LINEAR",
					"output":145
				},
				{
					"input":143,
					"interpolation":"STEP",
					"output":92
				},
				{
					"input":143,
					"interpolation":"STEP",
					"output":93
				},
				{
					"input":143,
					"interpolation":"STEP",
					"output":94
				},
				{
					"input":143,
					"interpolation":"STEP",
					"output":95
				},
				{
					"input":143,
					"interpolation":"STEP",
					"output":96
				},
				{
					"input":144,
					"interpolation":"LINEAR",
					"output":146
				},
				{
					"input":143,
					"interpolation":"STEP",
					"output":98
				},
				{
					"input":143,
					"interpolation":"STEP",
					"output":99
				},
				{
					"input":144,
					"interpolation":"LINEAR",
					"output":147
				},
				{
					"input":143,
					"interpolation":"STEP",
					"output":101
				},
				{
					"input":143,
					"interpolation":"STEP",
					"output":102
				},
				{
					"input":143,
					"interpolation":"STEP",
					"output":103
				},
				{
					"input":143,
					"interpolation":"STEP",
					"output":104
				},
				{
					"input":143,
					"interpolation":"STEP",
					"output":105
				},
				{
					"input":143,
					"interpolation":"STEP",
					"output":106
				},
				{
					"input":143,
					"interpolation":"STEP",
					"output":107
				},
				{
					"input":143,
					"interpolation":"STEP",
					"output":108
				},
				{
					"input":144,
					"interpolation":"LINEAR",
					"output":148
				},
				{
					"input":143,
					"interpolation":"STEP",
					"output":107
				},
				{
					"input":143,
					"interpolation":"STEP",
					"output":110
				},
				{
					"input":144,
					"interpolation":"LINEAR",
					"output":149
				},
				{
					"input":143,
					"interpolation":"STEP",
					"output":112
				},
				{
					"input":143,
					"interpolation":"STEP",
					"output":113
				},
				{
					"input":143,
					"interpolation":"STEP",
					"output":114
				},
				{
					"input":143,
					"interpolation":"STEP",
					"output":115
				},
				{
					"input":143,
					"interpolation":"STEP",
					"output":116
				},
				{
					"input":143,
					"interpolation":"STEP",
					"output":117
				},
				{
					"input":143,
					"interpolation":"STEP",
					"output":92
				},
				{
					"input":143,
					"interpolation":"STEP",
					"output":118
				},
				{
					"input":144,
					"interpolation":"LINEAR",
					"output":150
				},
				{
					"input":143,
					"interpolation":"STEP",
					"output":120
				},
				{
					"input":143,
					"interpolation":"STEP",
					"output":121
				},
				{
					"input":144,
					"interpolation":"LINEAR",
					"output":151
				},
				{
					"input":143,
					"interpolation":"STEP",
					"output":92
				},
				{
					"input":143,
					"interpolation":"STEP",
					"output":123
				},
				{
					"input":144,
					"interpolation":"LINEAR",
					"output":152
				},
				{
					"input":143,
					"interpolation":"STEP",
					"output":125
				},
				{
					"input":143,
					"interpolation":"STEP",
					"output":126
				},
				{
					"input":144,
					"interpolation":"LINEAR",
					"output":153
				},
				{
					"input":143,
					"interpolation":"STEP",
					"output":92
				}
			]
		},
		{
			"channels":[
				{
					"sampler":0,
					"target":{
						"node":25,
						"path":"translation"
					}
				},
				{
					"sampler":1,
					"target":{
						"node":25,
						"path":"rotation"
					}
				},
				{
					"sampler":2,
					"target":{
						"node":25,
						"path":"scale"
					}
				},
				{
					"sampler":3,
					"target":{
						"node":8,
						"path":"translation"
					}
				},
				{
					"sampler":4,
					"target":{
						"node":8,
						"path":"rotation"
					}
				},
				{
					"sampler":5,
					"target":{
						"node":8,
						"path":"scale"
					}
				},
				{
					"sampler":6,
					"target":{
						"node":7,
						"path":"translation"
					}
				},
				{
					"sampler":7,
					"target":{
						"node":7,
						"path":"rotation"
					}
				},
				{
					"sampler":8,
					"target":{
						"node":7,
						"path":"scale"
					}
				},
				{
					"sampler":9,
					"target":{
						"node":5,
						"path":"translation"
					}
				},
				{
					"sampler":10,
					"target":{
						"node":5,
						"path":"rotation"
					}
				},
				{
					"sampler":11,
					"target":{
						"node":5,
						"path":"scale"
					}
				},
				{
					"sampler":12,
					"target":{
						"node":3,
						"path":"translation"
					}
				},
				{
					"sampler":13,
					"target":{
						"node":3,
						"path":"rotation"
					}
				},
				{
					"sampler":14,
					"target":{
						"node":3,
						"path":"scale"
					}
				},
				{
					"sampler":15,
					"target":{
						"node":15,
						"path":"translation"
					}
				},
				{
					"sampler":16,
					"target":{
						"node":15,
						"path":"rotation"
					}
				},
				{
					"sampler":17,
					"target":{
						"node":15,
						"path":"scale"
					}
				},
				{
					"sampler":18,
					"target":{
						"node":14,
						"path":"translation"
					}
				},
				{
					"sampler":19,
					"target":{
						"node":14,
						"path":"rotation"
					}
				},
				{
					"sampler":20,
					"target":{
						"node":14,
						"path":"scale"
					}
				},
				{
					"sampler":21,
					"target":{
						"node":12,
						"path":"translation"
					}
				},
				{
					"sampler":22,
					"target":{
						"node":12,
						"path":"rotation"
					}
				},
				{
					"sampler":23,
					"target":{
						"node":12,
						"path":"scale"
					}
				},
				{
					"sampler":24,
					"target":{
						"node":10,
						"path":"translation"
					}
				},
				{
					"sampler":25,
					"target":{
						"node":10,
						"path":"rotation"
					}
				},
				{
					"sampler":26,
					"target":{
						"node":10,
						"path":"scale"
					}
				},
				{
					"sampler":27,
					"target":{
						"node":22,
						"path":"translation"
					}
				},
				{
					"sampler":28,
					"target":{
						"node":22,
						"path":"rotation"
					}
				},
				{
					"sampler":29,
					"target":{
						"node":22,
						"path":"scale"
					}
				},
				{
					"sampler":30,
					"target":{
						"node":29,
						"path":"translation"
					}
				},
				{
					"sampler":31,
					"target":{
						"node":29,
						"path":"rotation"
					}
				},
				{
					"sampler":32,
					"target":{
						"node":29,
						"path":"scale"
					}
				},
				{
					"sampler":33,
					"target":{
						"node":27,
						"path":"translation"
					}
				},
				{
					"sampler":34,
					"target":{
						"node":27,
						"path":"rotation"
					}
				},
				{
					"sampler":35,
					"target":{
						"node":27,
						"path":"scale"
					}
				},
				{
					"sampler":36,
					"target":{
						"node":33,
						"path":"translation"
					}
				},
				{
					"sampler":37,
					"target":{
						"node":33,
						"path":"rotation"
					}
				},
				{
					"sampler":38,
					"target":{
						"node":33,
						"path":"scale"
					}
				},
				{
					"sampler":39,
					"target":{
						"node":31,
						"path":"translation"
					}
				},
				{
					"sampler":40,
					"target":{
						"node":31,
						"path":"rotation"
					}
				},
				{
					"sampler":41,
					"target":{
						"node":31,
						"path":"scale"
					}
				}
			],
			"name":"walk",
			"samplers":[
				{
					"input":89,
					"interpolation":"STEP",
					"output":90
				},
				{
					"input":136,
					"interpolation":"LINEAR",
					"output":154
				},
				{
					"input":89,
					"interpolation":"STEP",
					"output":92
				},
				{
					"input":89,
					"interpolation":"STEP",
					"output":93
				},
				{
					"input":89,
					"interpolation":"STEP",
					"output":94
				},
				{
					"input":89,
					"interpolation":"STEP",
					"output":95
				},
				{
					"input":89,
					"interpolation":"STEP",
					"output":96
				},
				{
					"input":136,
					"interpolation":"LINEAR",
					"output":155
				},
				{
					"input":89,
					"interpolation":"STEP",
					"output":98
				},
				{
					"input":89,
					"interpolation":"STEP",
					"output":99
				},
				{
					"input":89,
					"interpolation":"STEP",
					"output":100
				},
				{
					"input":89,
					"interpolation":"STEP",
					"output":101
				},
				{
					"input":89,
					"interpolation":"STEP",
					"output":102
				},
				{
					"input":89,
					"interpolation":"STEP",
					"output":103
				},
				{
					"input":89,
					"interpolation":"STEP",
					"output":104
				},
				{
					"input":89,
					"interpolation":"STEP",
					"output":105
				},
				{
					"input":89,
					"interpolation":"STEP",
					"output":106
				},
				{
					"input":89,
					"interpolation":"STEP",
					"output":107
				},
				{
					"input":89,
					"interpolation":"STEP",
					"output":108
				},
				{
					"input":136,
					"interpolation":"LINEAR",
					"output":156
				},
				{
					"input":89,
					"interpolation":"STEP",
					"output":107
				},
				{
					"input":89,
					"interpolation":"STEP",
					"output":110
				},
				{
					"input":89,
					"interpolation":"STEP",
					"output":111
				},
				{
					"input":89,
					"interpolation":"STEP",
					"output":112
				},
				{
					"input":89,
					"interpolation":"STEP",
					"output":113
				},
				{
					"input":89,
					"interpolation":"STEP",
					"output":114
				},
				{
					"input":89,
					"interpolation":"STEP",
					"output":115
				},
				{
					"input":89,
					"interpolation":"STEP",
					"output":116
				},
				{
					"input":89,
					"interpolation":"STEP",
					"output":117
				},
				{
					"input":89,
					"interpolation":"STEP",
					"output":92
				},
				{
					"input":89,
					"interpolation":"STEP",
					"output":118
				},
				{
					"input":136,
					"interpolation":"LINEAR",
					"output":157
				},
				{
					"input":89,
					"interpolation":"STEP",
					"output":120
				},
				{
					"input":89,
					"interpolation":"STEP",
					"output":121
				},
				{
					"input":136,
					"interpolation":"LINEAR",
					"output":158
				},
				{
					"input":89,
					"interpolation":"STEP",
					"output":92
				},
				{
					"input":89,
					"interpolation":"STEP",
					"output":123
				},
				{
					"input":136,
					"interpolation":"LINEAR",
					"output":159
				},
				{
					"input":89,
					"interpolation":"STEP",
					"output":125
				},
				{
					"input":89,
					"interpolation":"STEP",
					"output":126
				},
				{
					"input":136,
					"interpolation":"LINEAR",
					"output":160
				},
				{
					"input":89,
					"interpolation":"STEP",
					"output":92
				}
			]
		}
	],
	"materials":[
		{
			"doubleSided":true,
			"name":"gloves",
			"pbrMetallicRoughness":{
				"baseColorFactor":[
					0.16006101667881012,
					0.16006101667881012,
					0.16006101667881012,
					1
				],
				"metallicFactor":0,
				"roughnessFactor":0.5
			}
		},
		{
			"doubleSided":true,
			"name":"skin",
			"pbrMetallicRoughness":{
				"baseColorFactor":[
					0.31299886107444763,
					0.18295936286449432,
					0.1055423840880394,
					1
				],
				"metallicFactor":0,
				"roughnessFactor":0.8629343509674072
			}
		},
		{
			"doubleSided":true,
			"name":"green_shirt",
			"pbrMetallicRoughness":{
				"baseColorFactor":[
					0.07128609716892242,
					0.1580508053302765,
					0.036369409412145615,
					1
				],
				"metallicFactor":0,
				"roughnessFactor":0.7471042275428772
			}
		},
		{
			"doubleSided":true,
			"name":"hair",
			"pbrMetallicRoughness":{
				"baseColorFactor":[
					0.8000229597091675,
					0.15857484936714172,
					0.015427293255925179,
					1
				],
				"metallicFactor":0,
				"roughnessFactor":0.7316602468490601
			}
		},
		{
			"doubleSided":true,
			"name":"eye",
			"pbrMetallicRoughness":{
				"baseColorFactor":[
					0.800000011920929,
					0.800000011920929,
					0.800000011920929,
					1
				],
				"metallicFactor":0,
				"roughnessFactor":0.5
			}
		},
		{
			"doubleSided":true,
			"name":"eye2",
			"pbrMetallicRoughness":{
				"baseColorFactor":[
					0.03294447064399719,
					0.0506192147731781,
					0.11499333381652832,
					1
				],
				"metallicFactor":0,
				"roughnessFactor":0.5
			}
		},
		{
			"doubleSided":true,
			"name":"hat",
			"pbrMetallicRoughness":{
				"baseColorFactor":[
					0.4792340397834778,
					0.4792340397834778,
					0.4792340397834778,
					1
				],
				"metallicFactor":0,
				"roughnessFactor":0.5
			}
		},
		{
			"doubleSided":true,
			"name":"shirt",
			"pbrMetallicRoughness":{
				"baseColorFactor":[
					0.1460428088903427,
					0.15189824998378754,
					0.31301093101501465,
					1
				],
				"metallicFactor":0,
				"roughnessFactor":0.5
			}
		},
		{
			"doubleSided":true,
			"name":"boots",
			"pbrMetallicRoughness":{
				"baseColorFactor":[
					0.049617376178503036,
					0.02073894441127777,
					0.012584744952619076,
					1
				],
				"metallicFactor":0,
				"roughnessFactor":0.6853281855583191
			}
		},
		{
			"doubleSided":true,
			"name":"pants",
			"pbrMetallicRoughness":{
				"baseColorFactor":[
					0.2045983076095581,
					0.032181233167648315,
					0.03707210347056389,
					1
				],
				"metallicFactor":0,
				"roughnessFactor":0.8397683501243591
			}
		}
	],
	"meshes":[
		{
			"name":"Mesh",
			"primitives":[
				{
					"attributes":{
						"POSITION":0,
						"NORMAL":1,
						"TEXCOORD_0":2,
						"TANGENT":3
					},
					"indices":4,
					"material":0
				}
			]
		},
		{
			"name":"Mesh",
			"primitives":[
				{
					"attributes":{
						"POSITION":5,
						"NORMAL":6,
						"TEXCOORD_0":7,
						"TANGENT":8
					},
					"indices":9,
					"material":1
				}
			]
		},
		{
			"name":"Mesh",
			"primitives":[
				{
					"attributes":{
						"POSITION":10,
						"NORMAL":11,
						"TEXCOORD_0":12,
						"TANGENT":13
					},
					"indices":14,
					"material":2
				}
			]
		},
		{
			"name":"Mesh",
			"primitives":[
				{
					"attributes":{
						"POSITION":15,
						"NORMAL":16,
						"TEXCOORD_0":17,
						"TANGENT":18
					},
					"indices":19,
					"material":0
				}
			]
		},
		{
			"name":"Mesh",
			"primitives":[
				{
					"attributes":{
						"POSITION":20,
						"NORMAL":21,
						"TEXCOORD_0":22,
						"TANGENT":23
					},
					"indices":24,
					"material":1
				}
			]
		},
		{
			"name":"Mesh",
			"primitives":[
				{
					"attributes":{
						"POSITION":25,
						"NORMAL":26,
						"TEXCOORD_0":27,
						"TANGENT":28
					},
					"indices":29,
					"material":2
				}
			]
		},
		{
			"name":"Mesh",
			"primitives":[
				{
					"attributes":{
						"POSITION":30,
						"NORMAL":31,
						"TEXCOORD_0":32,
						"TANGENT":33
					},
					"indices":34,
					"material":3
				}
			]
		},
		{
			"name":"Cube.019",
			"primitives":[
				{
					"attributes":{
						"POSITION":35,
						"NORMAL":36,
						"TEXCOORD_0":37,
						"TANGENT":38
					},
					"indices":39,
					"material":4
				}
			]
		},
		{
			"name":"Cube.020",
			"primitives":[
				{
					"attributes":{
						"POSITION":40,
						"NORMAL":41,
						"TEXCOORD_0":42,
						"TANGENT":43
					},
					"indices":39,
					"material":5
				}
			]
		},
		{
			"name":"Cube.021",
			"primitives":[
				{
					"attributes":{
						"POSITION":44,
						"NORMAL":45,
						"TEXCOORD_0":46,
						"TANGENT":47
					},
					"indices":48,
					"material":3
				}
			]
		},
		{
			"name":"Cube.022",
			"primitives":[
				{
					"attributes":{
						"POSITION":49,
						"NORMAL":50,
						"TEXCOORD_0":51,
						"TANGENT":52
					},
					"indices":53,
					"material":6
				}
			]
		},
		{
			"name":"Mesh",
			"primitives":[
				{
					"attributes":{
						"POSITION":54,
						"NORMAL":55,
						"TEXCOORD_0":56,
						"TANGENT":57
					},
					"indices":58,
					"material":1
				}
			]
		},
		{
			"name":"Mesh",
			"primitives":[
				{
					"attributes":{
						"POSITION":59,
						"NORMAL":60,
						"TEXCOORD_0":61,
						"TANGENT":62
					},
					"indices":63,
					"material":1
				}
			]
		},
		{
			"name":"Mesh",
			"primitives":[
				{
					"attributes":{
						"POSITION":64,
						"NORMAL":65,
						"TEXCOORD_0":66,
						"TANGENT":67
					},
					"indices":68,
					"material":7
				}
			]
		},
		{
			"name":"Mesh",
			"primitives":[
				{
					"attributes":{
						"POSITION":69,
						"NORMAL":70,
						"TEXCOORD_0":71,
						"TANGENT":72
					},
					"indices":73,
					"material":8
				}
			]
		},
		{
			"name":"Mesh",
			"primitives":[
				{
					"attributes":{
						"POSITION":74,
						"NORMAL":75,
						"TEXCOORD_0":76,
						"TANGENT":77
					},
					"indices":78,
					"material":9
				}
			]
		},
		{
			"name":"Mesh",
			"primitives":[
				{
					"attributes":{
						"POSITION":79,
						"NORMAL":80,
						"TEXCOORD_0":81,
						"TANGENT":82
					},
					"indices":83,
					"material":8
				}
			]
		},
		{
			"name":"Mesh",
			"primitives":[
				{
					"attributes":{
						"POSITION":84,
						"NORMAL":85,
						"TEXCOORD_0":86,
						"TANGENT":87
					},
					"indices":88,
					"material":9
				}
			]
		}
	],
	"skins":[
		{
			"inverseBindMatrices":161,
			"joints":[
				25,
				8,
				7,
				5,
				3,
				15,
				14,
				12,
				10,
				22,
				29,
				27,
				33,
				31
			],
			"name":"Armature"
		}
	],
	"accessors":[
		{
			"bufferView":0,
			"componentType":5126,
			"count":264,
			"max":[
				0.12550529837608337,
				0.10347866266965866,
				0.11781051009893417
			],
			"min":[
				-0.14970292150974274,
				-0.18402478098869324,
				-0.0838918536901474
			],
			"type":"VEC3"
		},
		{
			"bufferView":1,
			"componentType":5126,
			"count":264,
			"type":"VEC3"
		},
		{
			"bufferView":2,
			"componentType":5126,
			"count":264,
			"type":"VEC2"
		},
		{
			"bufferView":3,
			"componentType":5126,
			"count":264,
			"type":"VEC4"
		},
		{
			"bufferView":4,
			"componentType":5123,
			"count":396,
			"type":"SCALAR"
		},
		{
			"bufferView":5,
			"componentType":5126,
			"count":160,
			"max":[
				0.07645275443792343,
				0.14894689619541168,
				0.11285647749900818
			],
			"min":[
				-0.08189427852630615,
				-0.09991878271102905,
				-0.04549055173993111
			],
			"type":"VEC3"
		},
		{
			"bufferView":6,
			"componentType":5126,
			"count":160,
			"type":"VEC3"
		},
		{
			"bufferView":7,
			"componentType":5126,
			"count":160,
			"type":"VEC2"
		},
		{
			"bufferView":8,
			"componentType":5126,
			"count":160,
			"type":"VEC4"
		},
		{
			"bufferView":9,
			"componentType":5123,
			"count":240,
			"type":"SCALAR"
		},
		{
			"bufferView":10,
			"componentType":5126,
			"count":96,
			"max":[
				0.047555264085531235,
				0.17815358936786652,
				0.06037947162985802
			],
			"min":[
				-0.10021430253982544,
				-0.03552588075399399,
				-0.09343081712722778
			],
			"type":"VEC3"
		},
		{
			"bufferView":11,
			"componentType":5126,
			"count":96,
			"type":"VEC3"
		},
		{
			"bufferView":12,
			"componentType":5126,
			"count":96,
			"type":"VEC2"
		},
		{
			"bufferView":13,
			"componentType":5126,
			"count":96,
			"type":"VEC4"
		},
		{
			"bufferView":14,
			"componentType":5123,
			"count":144,
			"type":"SCALAR"
		},
		{
			"bufferView":15,
			"componentType":5126,
			"count":264,
			"max":[
				-0.721569836139679,
				0.41487112641334534,
				0.33981606364250183
			],
			"min":[
				-1.0492784976959229,
				0.13336674869060516,
				0.1388322412967682
			],
			"type":"VEC3"
		},
		{
			"bufferView":16,
			"componentType":5126,
			"count":264,
			"type":"VEC3"
		},
		{
			"bufferView":17,
			"componentType":5126,
			"count":264,
			"type":"VEC2"
		},
		{
			"bufferView":18,
			"componentType":5126,
			"count":264,
			"type":"VEC4"
		},
		{
			"bufferView":19,
			"componentType":5123,
			"count":396,
			"type":"SCALAR"
		},
		{
			"bufferView":20,
			"componentType":5126,
			"count":160,
			"max":[
				-0.7090351581573486,
				0.36619478464126587,
				0.328700453042984
			],
			"min":[
				-0.9009676575660706,
				0.1001165509223938,
				0.16016662120819092
			],
			"type":"VEC3"
		},
		{
			"bufferView":21,
			"componentType":5126,
			"count":160,
			"type":"VEC3"
		},
		{
			"bufferView":22,
			"componentType":5126,
			"count":160,
			"type":"VEC2"
		},
		{
			"bufferView":23,
			"componentType":5126,
			"count":160,
			"type":"VEC4"
		},
		{
			"bufferView":24,
			"componentType":5123,
			"count":240,
			"type":"SCALAR"
		},
		{
			"bufferView":25,
			"componentType":5126,
			"count":96,
			"max":[
				-0.27671435475349426,
				0.7109378576278687,
				0.060379475355148315
			],
			"min":[
				-0.5109814405441284,
				0.5614526271820068,
				-0.09343079477548599
			],
			"type":"VEC3"
		},
		{
			"bufferView":26,
			"componentType":5126,
			"count":96,
			"type":"VEC3"
		},
		{
			"bufferView":27,
			"componentType":5126,
			"count":96,
			"type":"VEC2"
		},
		{
			"bufferView":28,
			"componentType":5126,
			"count":96,
			"type":"VEC4"
		},
		{
			"bufferView":29,
			"componentType":5123,
			"count":144,
			"type":"SCALAR"
		},
		{
			"bufferView":30,
			"componentType":5126,
			"count":96,
			"max":[
				0.22587132453918457,
				0.2551305592060089,
				0.06638889014720917
			],
			"min":[
				-0.22587132453918457,
				-0.2551305592060089,
				-0.06638889759778976
			],
			"type":"VEC3"
		},
		{
			"bufferView":31,
			"componentType":5126,
			"count":96,
			"type":"VEC3"
		},
		{
			"bufferView":32,
			"componentType":5126,
			"count":96,
			"type":"VEC2"
		},
		{
			"bufferView":33,
			"componentType":5126,
			"count":96,
			"type":"VEC4"
		},
		{
			"bufferView":34,
			"componentType":5123,
			"count":144,
			"type":"SCALAR"
		},
		{
			"bufferView":35,
			"componentType":5126,
			"count":192,
			"max":[
				0.15498393774032593,
				0.859710693359375,
				0.014717742800712585
			],
			"min":[
				-0.15498393774032593,
				0.7126263976097107,
				-0.09429292380809784
			],
			"type":"VEC3"
		},
		{
			"bufferView":36,
			"componentType":5126,
			"count":192,
			"type":"VEC3"
		},
		{
			"bufferView":37,
			"componentType":5126,
			"count":192,
			"type":"VEC2"
		},
		{
			"bufferView":38,
			"componentType":5126,
			"count":192,
			"type":"VEC4"
		},
		{
			"bufferView":39,
			"componentType":5123,
			"count":288,
			"type":"SCALAR"
		},
		{
			"bufferView":40,
			"componentType":5126,
			"count":192,
			"max":[
				0.11909220367670059,
				0.8126775026321411,
				0.026896100491285324
			],
			"min":[
				-0.11909220367670059,
				0.757301926612854,
				-0.014145095832645893
			],
			"type":"VEC3"
		},
		{
			"bufferView":41,
			"componentType":5126,
			"count":192,
			"type":"VEC3"
		},
		{
			"bufferView":42,
			"componentType":5126,
			"count":192,
			"type":"VEC2"
		},
		{
			"bufferView":43,
			"componentType":5126,
			"count":192,
			"type":"VEC4"
		},
		{
			"bufferView":44,
			"componentType":5126,
			"count":72,
			"max":[
				0.14585766196250916,
				0.9191722869873047,
				0.21894897520542145
			],
			"min":[
				-0.14585766196250916,
				0.835750937461853,
				0.18104569613933563
			],
			"type":"VEC3"
		},
		{
			"bufferView":45,
			"componentType":5126,
			"count":72,
			"type":"VEC3"
		},
		{
			"bufferView":46,
			"componentType":5126,
			"count":72,
			"type":"VEC2"
		},
		{
			"bufferView":47,
			"componentType":5126,
			"count":72,
			"type":"VEC4"
		},
		{
			"bufferView":48,
			"componentType":5123,
			"count":120,
			"type":"SCALAR"
		},
		{
			"bufferView":49,
			"componentType":5126,
			"count":24,
			"max":[
				1.0481891632080078,
				1,
				1.0648057460784912
			],
			"min":[
				-1.074364185333252,
				-0.36910688877105713,
				-1.064805507659912
			],
			"type":"VEC3"
		},
		{
			"bufferView":50,
			"componentType":5126,
			"count":24,
			"type":"VEC3"
		},
		{
			"bufferView":51,
			"componentType":5126,
			"count":24,
			"type":"VEC2"
		},
		{
			"bufferView":52,
			"componentType":5126,
			"count":24,
			"type":"VEC4"
		},
		{
			"bufferView":53,
			"componentType":5123,
			"count":36,
			"type":"SCALAR"
		},
		{
			"bufferView":54,
			"componentType":5126,
			"count":1612,
			"max":[
				0.22868965566158295,
				0.18824203312397003,
				0.24772949516773224
			],
			"min":[
				-0.22868965566158295,
				-0.18824203312397003,
				-0.18824203312397003
			],
			"type":"VEC3"
		},
		{
			"bufferView":55,
			"componentType":5126,
			"count":1612,
			"type":"VEC3"
		},
		{
			"bufferView":56,
			"componentType":5126,
			"count":1612,
			"type":"VEC2"
		},
		{
			"bufferView":57,
			"componentType":5126,
			"count":1612,
			"type":"VEC4"
		},
		{
			"bufferView":58,
			"componentType":5123,
			"count":2784,
			"type":"SCALAR"
		},
		{
			"bufferView":59,
			"componentType":5126,
			"count":96,
			"max":[
				0.10841238498687744,
				0.12341013550758362,
				0.10841238498687744
			],
			"min":[
				-0.10841238498687744,
				-0.10360357165336609,
				-0.10841238498687744
			],
			"type":"VEC3"
		},
		{
			"bufferView":60,
			"componentType":5126,
			"count":96,
			"type":"VEC3"
		},
		{
			"bufferView":61,
			"componentType":5126,
			"count":96,
			"type":"VEC2"
		},
		{
			"bufferView":62,
			"componentType":5126,
			"count":96,
			"type":"VEC4"
		},
		{
			"bufferView":63,
			"componentType":5123,
			"count":144,
			"type":"SCALAR"
		},
		{
			"bufferView":64,
			"componentType":5126,
			"count":160,
			"max":[
				0.28837189078330994,
				0.21912436187267303,
				0.16315455734729767
			],
			"min":[
				-0.28837189078330994,
				-0.21912436187267303,
				-0.16315455734729767
			],
			"type":"VEC3"
		},
		{
			"bufferView":65,
			"componentType":5126,
			"count":160,
			"type":"VEC3"
		},
		{
			"bufferView":66,
			"componentType":5126,
			"count":160,
			"type":"VEC2"
		},
		{
			"bufferView":67,
			"componentType":5126,
			"count":160,
			"type":"VEC4"
		},
		{
			"bufferView":68,
			"componentType":5123,
			"count":240,
			"type":"SCALAR"
		},
		{
			"bufferView":69,
			"componentType":5126,
			"count":576,
			"max":[
				0.05323950573801994,
				0.24780859053134918,
				0.3116522431373596
			],
			"min":[
				-0.23360484838485718,
				-0.12014108896255493,
				-0.11477436125278473
			],
			"type":"VEC3"
		},
		{
			"bufferView":70,
			"componentType":5126,
			"count":576,
			"type":"VEC3"
		},
		{
			"bufferView":71,
			"componentType":5126,
			"count":576,
			"type":"VEC2"
		},
		{
			"bufferView":72,
			"componentType":5126,
			"count":576,
			"type":"VEC4"
		},
		{
			"bufferView":73,
			"componentType":5123,
			"count":864,
			"type":"SCALAR"
		},
		{
			"bufferView":74,
			"componentType":5126,
			"count":96,
			"max":[
				0.03751441836357117,
				0.19636312127113342,
				0.08271562308073044
			],
			"min":[
				-0.1279168426990509,
				-0.13130120933055878,
				-0.08271562308073044
			],
			"type":"VEC3"
		},
		{
			"bufferView":75,
			"componentType":5126,
			"count":96,
			"type":"VEC3"
		},
		{
			"bufferView":76,
			"componentType":5126,
			"count":96,
			"type":"VEC2"
		},
		{
			"bufferView":77,
			"componentType":5126,
			"count":96,
			"type":"VEC4"
		},
		{
			"bufferView":78,
			"componentType":5123,
			"count":144,
			"type":"SCALAR"
		},
		{
			"bufferView":79,
			"componentType":5126,
			"count":576,
			"max":[
				-0.3254237771034241,
				0.32359999418258667,
				0.3116522431373596
			],
			"min":[
				-0.6571280360221863,
				-0.06518169492483139,
				-0.11477435380220413
			],
			"type":"VEC3"
		},
		{
			"bufferView":80,
			"componentType":5126,
			"count":576,
			"type":"VEC3"
		},
		{
			"bufferView":81,
			"componentType":5126,
			"count":576,
			"type":"VEC2"
		},
		{
			"bufferView":82,
			"componentType":5126,
			"count":576,
			"type":"VEC4"
		},
		{
			"bufferView":83,
			"componentType":5123,
			"count":864,
			"type":"SCALAR"
		},
		{
			"bufferView":84,
			"componentType":5126,
			"count":96,
			"max":[
				-0.20093731582164764,
				0.31030431389808655,
				0.08271563798189163
			],
			"min":[
				-0.4764545261859894,
				0.03151628002524376,
				-0.08271560072898865
			],
			"type":"VEC3"
		},
		{
			"bufferView":85,
			"componentType":5126,
			"count":96,
			"type":"VEC3"
		},
		{
			"bufferView":86,
			"componentType":5126,
			"count":96,
			"type":"VEC2"
		},
		{
			"bufferView":87,
			"componentType":5126,
			"count":96,
			"type":"VEC4"
		},
		{
			"bufferView":88,
			"componentType":5123,
			"count":144,
			"type":"SCALAR"
		},
		{
			"bufferView":89,
			"componentType":5126,
			"count":2,
			"max":[
				1
			],
			"min":[
				0.041666666666666664
			],
			"type":"SCALAR"
		},
		{
			"bufferView":90,
			"componentType":5126,
			"count":2,
			"type":"VEC3"
		},
		{
			"bufferView":91,
			"componentType":5126,
			"count":2,
			"type":"VEC4"
		},
		{
			"bufferView":92,
			"componentType":5126,
			"count":2,
			"type":"VEC3"
		},
		{
			"bufferView":93,
			"componentType":5126,
			"count":2,
			"type":"VEC3"
		},
		{
			"bufferView":94,
			"componentType":5126,
			"count":2,
			"type":"VEC4"
		},
		{
			"bufferView":95,
			"componentType":5126,
			"count":2,
			"type":"VEC3"
		},
		{
			"bufferView":96,
			"componentType":5126,
			"count":2,
			"type":"VEC3"
		},
		{
			"bufferView":97,
			"componentType":5126,
			"count":2,
			"type":"VEC4"
		},
		{
			"bufferView":98,
			"componentType":5126,
			"count":2,
			"type":"VEC3"
		},
		{
			"bufferView":99,
			"componentType":5126,
			"count":2,
			"type":"VEC3"
		},
		{
			"bufferView":100,
			"componentType":5126,
			"count":2,
			"type":"VEC4"
		},
		{
			"bufferView":101,
			"componentType":5126,
			"count":2,
			"type":"VEC3"
		},
		{
			"bufferView":102,
			"componentType":5126,
			"count":2,
			"type":"VEC3"
		},
		{
			"bufferView":103,
			"componentType":5126,
			"count":2,
			"type":"VEC4"
		},
		{
			"bufferView":104,
			"componentType":5126,
			"count":2,
			"type":"VEC3"
		},
		{
			"bufferView":105,
			"componentType":5126,
			"count":2,
			"type":"VEC3"
		},
		{
			"bufferView":106,
			"componentType":5126,
			"count":2,
			"type":"VEC4"
		},
		{
			"bufferView":107,
			"componentType":5126,
			"count":2,
			"type":"VEC3"
		},
		{
			"bufferView":108,
			"componentType":5126,
			"count":2,
			"type":"VEC3"
		},
		{
			"bufferView":109,
			"componentType":5126,
			"count":2,
			"type":"VEC4"
		},
		{
			"bufferView":110,
			"componentType":5126,
			"count":2,
			"type":"VEC3"
		},
		{
			"bufferView":111,
			"componentType":5126,
			"count":2,
			"type":"VEC4"
		},
		{
			"bufferView":112,
			"componentType":5126,
			"count":2,
			"type":"VEC3"
		},
		{
			"bufferView":113,
			"componentType":5126,
			"count":2,
			"type":"VEC3"
		},
		{
			"bufferView":114,
			"componentType":5126,
			"count":2,
			"type":"VEC4"
		},
		{
			"bufferView":115,
			"componentType":5126,
			"count":2,
			"type":"VEC3"
		},
		{
			"bufferView":116,
			"componentType":5126,
			"count":2,
			"type":"VEC3"
		},
		{
			"bufferView":117,
			"componentType":5126,
			"count":2,
			"type":"VEC4"
		},
		{
			"bufferView":118,
			"componentType":5126,
			"count":2,
			"type":"VEC3"
		},
		{
			"bufferView":119,
			"componentType":5126,
			"count":2,
			"type":"VEC4"
		},
		{
			"bufferView":120,
			"componentType":5126,
			"count":2,
			"type":"VEC3"
		},
		{
			"bufferView":121,
			"componentType":5126,
			"count":2,
			"type":"VEC3"
		},
		{
			"bufferView":122,
			"componentType":5126,
			"count":2,
			"type":"VEC4"
		},
		{
			"bufferView":123,
			"componentType":5126,
			"count":2,
			"type":"VEC3"
		},
		{
			"bufferView":124,
			"componentType":5126,
			"count":2,
			"type":"VEC4"
		},
		{
			"bufferView":125,
			"componentType":5126,
			"count":2,
			"type":"VEC3"
		},
		{
			"bufferView":126,
			"componentType":5126,
			"count":2,
			"type":"VEC3"
		},
		{
			"bufferView":127,
			"componentType":5126,
			"count":2,
			"type":"VEC4"
		},
		{
			"bufferView":128,
			"componentType":5126,
			"count":2,
			"max":[
				0.5416666666666666
			],
			"min":[
				0.041666666666666664
			],
			"type":"SCALAR"
		},
		{
			"bufferView":129,
			"componentType":5126,
			"count":13,
			"max":[
				0.5416666666666666
			],
			"min":[
				0.041666666666666664
			],
			"type":"SCALAR"
		},
		{
			"bufferView":130,
			"componentType":5126,
			"count":13,
			"type":"VEC4"
		},
		{
			"bufferView":131,
			"componentType":5126,
			"count":13,
			"type":"VEC4"
		},
		{
			"bufferView":132,
			"componentType":5126,
			"count":13,
			"type":"VEC3"
		},
		{
			"bufferView":133,
			"componentType":5126,
			"count":13,
			"type":"VEC4"
		},
		{
			"bufferView":134,
			"componentType":5126,
			"count":13,
			"type":"VEC3"
		},
		{
			"bufferView":135,
			"componentType":5126,
			"count":13,
			"type":"VEC4"
		},
		{
			"bufferView":136,
			"componentType":5126,
			"count":24,
			"max":[
				1
			],
			"min":[
				0.041666666666666664
			],
			"type":"SCALAR"
		},
		{
			"bufferView":137,
			"componentType":5126,
			"count":24,
			"type":"VEC4"
		},
		{
			"bufferView":138,
			"componentType":5126,
			"count":24,
			"type":"VEC4"
		},
		{
			"bufferView":139,
			"componentType":5126,
			"count":24,
			"type":"VEC4"
		},
		{
			"bufferView":140,
			"componentType":5126,
			"count":24,
			"type":"VEC4"
		},
		{
			"bufferView":141,
			"componentType":5126,
			"count":24,
			"type":"VEC4"
		},
		{
			"bufferView":142,
			"componentType":5126,
			"count":24,
			"type":"VEC4"
		},
		{
			"bufferView":143,
			"componentType":5126,
			"count":2,
			"max":[
				0.625
			],
			"min":[
				0.08333333333333333
			],
			"type":"SCALAR"
		},
		{
			"bufferView":144,
			"componentType":5126,
			"count":14,
			"max":[
				0.625
			],
			"min":[
				0.08333333333333333
			],
			"type":"SCALAR"
		},
		{
			"bufferView":145,
			"componentType":5126,
			"count":14,
			"type":"VEC4"
		},
		{
			"bufferView":146,
			"componentType":5126,
			"count":14,
			"type":"VEC4"
		},
		{
			"bufferView":147,
			"componentType":5126,
			"count":14,
			"type":"VEC4"
		},
		{
			"bufferView":148,
			"componentType":5126,
			"count":14,
			"type":"VEC4"
		},
		{
			"bufferView":149,
			"componentType":5126,
			"count":14,
			"type":"VEC4"
		},
		{
			"bufferView":150,
			"componentType":5126,
			"count":14,
			"type":"VEC4"
		},
		{
			"bufferView":151,
			"componentType":5126,
			"count":14,
			"type":"VEC4"
		},
		{
			"bufferView":152,
			"componentType":5126,
			"count":14,
			"type":"VEC4"
		},
		{
			"bufferView":153,
			"componentType":5126,
			"count":14,
			"type":"VEC4"
		},
		{
			"bufferView":154,
			"componentType":5126,
			"count":24,
			"type":"VEC4"
		},
		{
			"bufferView":155,
			"componentType":5126,
			"count":24,
			"type":"VEC4"
		},
		{
			"bufferView":156,
			"componentType":5126,
			"count":24,
			"type":"VEC4"
		},
		{
			"bufferView":157,
			"componentType":5126,
			"count":24,
			"type":"VEC4"
		},
		{
			"bufferView":158,
			"componentType":5126,
			"count":24,
			"type":"VEC4"
		},
		{
			"bufferView":159,
			"componentType":5126,
			"count":24,
			"type":"VEC4"
		},
		{
			"bufferView":160,
			"componentType":5126,
			"count":24,
			"type":"VEC4"
		},
		{
			"bufferView":161,
			"componentType":5126,
			"count":14,
			"type":"MAT4"
		}
	],
	"bufferViews":[
		{
			"buffer":0,
			"byteLength":3168,
			"byteOffset":0,
			"target":34962
		},
		{
			"buffer":0,
			"byteLength":3168,
			"byteOffset":3168,
			"target":34962
		},
		{
			"buffer":0,
			"byteLength":2112,
			"byteOffset":6336,
			"target":34962
		},
		{
			"buffer":0,
			"byteLength":4224,
			"byteOffset":8448,
			"target":34962
		},
		{
			"buffer":0,
			"byteLength":792,
			"byteOffset":12672,
			"target":34963
		},
		{
			"buffer":0,
			"byteLength":1920,
			"byteOffset":13464,
			"target":34962
		},
		{
			"buffer":0,
			"byteLength":1920,
			"byteOffset":15384,
			"target":34962
		},
		{
			"buffer":0,
			"byteLength":1280,
			"byteOffset":17304,
			"target":34962
		},
		{
			"buffer":0,
			"byteLength":2560,
			"byteOffset":18584,
			"target":34962
		},
		{
			"buffer":0,
			"byteLength":480,
			"byteOffset":21144,
			"target":34963
		},
		{
			"buffer":0,
			"byteLength":1152,
			"byteOffset":21624,
			"target":34962
		},
		{
			"buffer":0,
			"byteLength":1152,
			"byteOffset":22776,
			"target":34962
		},
		{
			"buffer":0,
			"byteLength":768,
			"byteOffset":23928,
			"target":34962
		},
		{
			"buffer":0,
			"byteLength":1536,
			"byteOffset":24696,
			"target":34962
		},
		{
			"buffer":0,
			"byteLength":288,
			"byteOffset":26232,
			"target":34963
		},
		{
			"buffer":0,
			"byteLength":3168,
			"byteOffset":26520,
			"target":34962
		},
		{
			"buffer":0,
			"byteLength":3168,
			"byteOffset":29688,
			"target":34962
		},
		{
			"buffer":0,
			"byteLength":2112,
			"byteOffset":32856,
			"target":34962
		},
		{
			"buffer":0,
			"byteLength":4224,
			"byteOffset":34968,
			"target":34962
		},
		{
			"buffer":0,
			"byteLength":792,
			"byteOffset":39192,
			"target":34963
		},
		{
			"buffer":0,
			"byteLength":1920,
			"byteOffset":39984,
			"target":34962
		},
		{
			"buffer":0,
			"byteLength":1920,
			"byteOffset":41904,
			"target":34962
		},
		{
			"buffer":0,
			"byteLength":1280,
			"byteOffset":43824,
			"target":34962
		},
		{
			"buffer":0,
			"byteLength":2560,
			"byteOffset":45104,
			"target":34962
		},
		{
			"buffer":0,
			"byteLength":480,
			"byteOffset":47664,
			"target":34963
		},
		{
			"buffer":0,
			"byteLength":1152,
			"byteOffset":48144,
			"target":34962
		},
		{
			"buffer":0,
			"byteLength":1152,
			"byteOffset":49296,
			"target":34962
		},
		{
			"buffer":0,
			"byteLength":768,
			"byteOffset":50448,
			"target":34962
		},
		{
			"buffer":0,
			"byteLength":1536,
			"byteOffset":51216,
			"target":34962
		},
		{
			"buffer":0,
			"byteLength":288,
			"byteOffset":52752,
			"target":34963
		},
		{
			"buffer":0,
			"byteLength":1152,
			"byteOffset":53040,
			"target":34962
		},
		{
			"buffer":0,
			"byteLength":1152,
			"byteOffset":54192,
			"target":34962
		},
		{
			"buffer":0,
			"byteLength":768,
			"byteOffset":55344,
			"target":34962
		},
		{
			"buffer":0,
			"byteLength":1536,
			"byteOffset":56112,
			"target":34962
		},
		{
			"buffer":0,
			"byteLength":288,
			"byteOffset":57648,
			"target":34963
		},
		{
			"buffer":0,
			"byteLength":2304,
			"byteOffset":57936,
			"target":34962
		},
		{
			"buffer":0,
			"byteLength":2304,
			"byteOffset":60240,
			"target":34962
		},
		{
			"buffer":0,
			"byteLength":1536,
			"byteOffset":62544,
			"target":34962
		},
		{
			"buffer":0,
			"byteLength":3072,
			"byteOffset":64080,
			"target":34962
		},
		{
			"buffer":0,
			"byteLength":576,
			"byteOffset":67152,
			"target":34963
		},
		{
			"buffer":0,
			"byteLength":2304,
			"byteOffset":67728,
			"target":34962
		},
		{
			"buffer":0,
			"byteLength":2304,
			"byteOffset":70032,
			"target":34962
		},
		{
			"buffer":0,
			"byteLength":1536,
			"byteOffset":72336,
			"target":34962
		},
		{
			"buffer":0,
			"byteLength":3072,
			"byteOffset":73872,
			"target":34962
		},
		{
			"buffer":0,
			"byteLength":864,
			"byteOffset":76944,
			"target":34962
		},
		{
			"buffer":0,
			"byteLength":864,
			"byteOffset":77808,
			"target":34962
		},
		{
			"buffer":0,
			"byteLength":576,
			"byteOffset":78672,
			"target":34962
		},
		{
			"buffer":0,
			"byteLength":1152,
			"byteOffset":79248,
			"target":34962
		},
		{
			"buffer":0,
			"byteLength":240,
			"byteOffset":80400,
			"target":34963
		},
		{
			"buffer":0,
			"byteLength":288,
			"byteOffset":80640,
			"target":34962
		},
		{
			"buffer":0,
			"byteLength":288,
			"byteOffset":80928,
			"target":34962
		},
		{
			"buffer":0,
			"byteLength":192,
			"byteOffset":81216,
			"target":34962
		},
		{
			"buffer":0,
			"byteLength":384,
			"byteOffset":81408,
			"target":34962
		},
		{
			"buffer":0,
			"byteLength":72,
			"byteOffset":81792,
			"target":34963
		},
		{
			"buffer":0,
			"byteLength":19344,
			"byteOffset":81864,
			"target":34962
		},
		{
			"buffer":0,
			"byteLength":19344,
			"byteOffset":101208,
			"target":34962
		},
		{
			"buffer":0,
			"byteLength":12896,
			"byteOffset":120552,
			"target":34962
		},
		{
			"buffer":0,
			"byteLength":25792,
			"byteOffset":133448,
			"target":34962
		},
		{
			"buffer":0,
			"byteLength":5568,
			"byteOffset":159240,
			"target":34963
		},
		{
			"buffer":0,
			"byteLength":1152,
			"byteOffset":164808,
			"target":34962
		},
		{
			"buffer":0,
			"byteLength":1152,
			"byteOffset":165960,
			"target":34962
		},
		{
			"buffer":0,
			"byteLength":768,
			"byteOffset":167112,
			"target":34962
		},
		{
			"buffer":0,
			"byteLength":1536,
			"byteOffset":167880,
			"target":34962
		},
		{
			"buffer":0,
			"byteLength":288,
			"byteOffset":169416,
			"target":34963
		},
		{
			"buffer":0,
			"byteLength":1920,
			"byteOffset":169704,
			"target":34962
		},
		{
			"buffer":0,
			"byteLength":1920,
			"byteOffset":171624,
			"target":34962
		},
		{
			"buffer":0,
			"byteLength":1280,
			"byteOffset":173544,
			"target":34962
		},
		{
			"buffer":0,
			"byteLength":2560,
			"byteOffset":174824,
			"target":34962
		},
		{
			"buffer":0,
			"byteLength":480,
			"byteOffset":177384,
			"target":34963
		},
		{
			"buffer":0,
			"byteLength":6912,
			"byteOffset":177864,
			"target":34962
		},
		{
			"buffer":0,
			"byteLength":6912,
			"byteOffset":184776,
			"target":34962
		},
		{
			"buffer":0,
			"byteLength":4608,
			"byteOffset":191688,
			"target":34962
		},
		{
			"buffer":0,
			"byteLength":9216,
			"byteOffset":196296,
			"target":34962
		},
		{
			"buffer":0,
			"byteLength":1728,
			"byteOffset":205512,
			"target":34963
		},
		{
			"buffer":0,
			"byteLength":1152,
			"byteOffset":207240,
			"target":34962
		},
		{
			"buffer":0,
			"byteLength":1152,
			"byteOffset":208392,
			"target":34962
		},
		{
			"buffer":0,
			"byteLength":768,
			"byteOffset":209544,
			"target":34962
		},
		{
			"buffer":0,
			"byteLength":1536,
			"byteOffset":210312,
			"target":34962
		},
		{
			"buffer":0,
			"byteLength":288,
			"byteOffset":211848,
			"target":34963
		},
		{
			"buffer":0,
			"byteLength":6912,
			"byteOffset":212136,
			"target":34962
		},
		{
			"buffer":0,
			"byteLength":6912,
			"byteOffset":219048,
			"target":34962
		},
		{
			"buffer":0,
			"byteLength":4608,
			"byteOffset":225960,
			"target":34962
		},
		{
			"buffer":0,
			"byteLength":9216,
			"byteOffset":230568,
			"target":34962
		},
		{
			"buffer":0,
			"byteLength":1728,
			"byteOffset":239784,
			"target":34963
		},
		{
			"buffer":0,
			"byteLength":1152,
			"byteOffset":241512,
			"target":34962
		},
		{
			"buffer":0,
			"byteLength":1152,
			"byteOffset":242664,
			"target":34962
		},
		{
			"buffer":0,
			"byteLength":768,
			"byteOffset":243816,
			"target":34962
		},
		{
			"buffer":0,
			"byteLength":1536,
			"byteOffset":244584,
			"target":34962
		},
		{
			"buffer":0,
			"byteLength":288,
			"byteOffset":246120,
			"target":34963
		},
		{
			"buffer":0,
			"byteLength":8,
			"byteOffset":246408
		},
		{
			"buffer":0,
			"byteLength":24,
			"byteOffset":246416
		},
		{
			"buffer":0,
			"byteLength":32,
			"byteOffset":246440
		},
		{
			"buffer":0,
			"byteLength":24,
			"byteOffset":246472
		},
		{
			"buffer":0,
			"byteLength":24,
			"byteOffset":246496
		},
		{
			"buffer":0,
			"byteLength":32,
			"byteOffset":246520
		},
		{
			"buffer":0,
			"byteLength":24,
			"byteOffset":246552
		},
		{
			"buffer":0,
			"byteLength":24,
			"byteOffset":246576
		},
		{
			"buffer":0,
			"byteLength":32,
			"byteOffset":246600
		},
		{
			"buffer":0,
			"byteLength":24,
			"byteOffset":246632
		},
		{
			"buffer":0,
			"byteLength":24,
			"byteOffset":246656
		},
		{
			"buffer":0,
			"byteLength":32,
			"byteOffset":246680
		},
		{
			"buffer":0,
			"byteLength":24,
			"byteOffset":246712
		},
		{
			"buffer":0,
			"byteLength":24,
			"byteOffset":246736
		},
		{
			"buffer":0,
			"byteLength":32,
			"byteOffset":246760
		},
		{
			"buffer":0,
			"byteLength":24,
			"byteOffset":246792
		},
		{
			"buffer":0,
			"byteLength":24,
			"byteOffset":246816
		},
		{
			"buffer":0,
			"byteLength":32,
			"byteOffset":246840
		},
		{
			"buffer":0,
			"byteLength":24,
			"byteOffset":246872
		},
		{
			"buffer":0,
			"byteLength":24,
			"byteOffset":246896
		},
		{
			"buffer":0,
			"byteLength":32,
			"byteOffset":246920
		},
		{
			"buffer":0,
			"byteLength":24,
			"byteOffset":246952
		},
		{
			"buffer":0,
			"byteLength":32,
			"byteOffset":246976
		},
		{
			"buffer":0,
			"byteLength":24,
			"byteOffset":247008
		},
		{
			"buffer":0,
			"byteLength":24,
			"byteOffset":247032
		},
		{
			"buffer":0,
			"byteLength":32,
			"byteOffset":247056
		},
		{
			"buffer":0,
			"byteLength":24,
			"byteOffset":247088
		},
		{
			"buffer":0,
			"byteLength":24,
			"byteOffset":247112
		},
		{
			"buffer":0,
			"byteLength":32,
			"byteOffset":247136
		},
		{
			"buffer":0,
			"byteLength":24,
			"byteOffset":247168
		},
		{
			"buffer":0,
			"byteLength":32,
			"byteOffset":247192
		},
		{
			"buffer":0,
			"byteLength":24,
			"byteOffset":247224
		},
		{
			"buffer":0,
			"byteLength":24,
			"byteOffset":247248
		},
		{
			"buffer":0,
			"byteLength":32,
			"byteOffset":247272
		},
		{
			"buffer":0,
			"byteLength":24,
			"byteOffset":247304
		},
		{
			"buffer":0,
			"byteLength":32,
			"byteOffset":247328
		},
		{
			"buffer":0,
			"byteLength":24,
			"byteOffset":247360
		},
		{
			"buffer":0,
			"byteLength":24,
			"byteOffset":247384
		},
		{
			"buffer":0,
			"byteLength":32,
			"byteOffset":247408
		},
		{
			"buffer":0,
			"byteLength":8,
			"byteOffset":247440
		},
		{
			"buffer":0,
			"byteLength":52,
			"byteOffset":247448
		},
		{
			"buffer":0,
			"byteLength":208,
			"byteOffset":247500
		},
		{
			"buffer":0,
			"byteLength":208,
			"byteOffset":247708
		},
		{
			"buffer":0,
			"byteLength":156,
			"byteOffset":247916
		},
		{
			"buffer":0,
			"byteLength":208,
			"byteOffset":248072
		},
		{
			"buffer":0,
			"byteLength":156,
			"byteOffset":248280
		},
		{
			"buffer":0,
			"byteLength":208,
			"byteOffset":248436
		},
		{
			"buffer":0,
			"byteLength":96,
			"byteOffset":248644
		},
		{
			"buffer":0,
			"byteLength":384,
			"byteOffset":248740
		},
		{
			"buffer":0,
			"byteLength":384,
			"byteOffset":249124
		},
		{
			"buffer":0,
			"byteLength":384,
			"byteOffset":249508
		},
		{
			"buffer":0,
			"byteLength":384,
			"byteOffset":249892
		},
		{
			"buffer":0,
			"byteLength":384,
			"byteOffset":250276
		},
		{
			"buffer":0,
			"byteLength":384,
			"byteOffset":250660
		},
		{
			"buffer":0,
			"byteLength":8,
			"byteOffset":251044
		},
		{
			"buffer":0,
			"byteLength":56,
			"byteOffset":251052
		},
		{
			"buffer":0,
			"byteLength":224,
			"byteOffset":251108
		},
		{
			"buffer":0,
			"byteLength":224,
			"byteOffset":251332
		},
		{
			"buffer":0,
			"byteLength":224,
			"byteOffset":251556
		},
		{
			"buffer":0,
			"byteLength":224,
			"byteOffset":251780
		},
		{
			"buffer":0,
			"byteLength":224,
			"byteOffset":252004
		},
		{
			"buffer":0,
			"byteLength":224,
			"byteOffset":252228
		},
		{
			"buffer":0,
			"byteLength":224,
			"byteOffset":252452
		},
		{
			"buffer":0,
			"byteLength":224,
			"byteOffset":252676
		},
		{
			"buffer":0,
			"byteLength":224,
			"byteOffset":252900
		},
		{
			"buffer":0,
			"byteLength":384,
			"byteOffset":253124
		},
		{
			"buffer":0,
			"byteLength":384,
			"byteOffset":253508
		},
		{
			"buffer":0,
			"byteLength":384,
			"byteOffset":253892
		},
		{
			"buffer":0,
			"byteLength":384,
			"byteOffset":254276
		},
		{
			"buffer":0,
			"byteLength":384,
			"byteOffset":254660
		},
		{
			"buffer":0,
			"byteLength":384,
			"byteOffset":255044
		},
		{
			"buffer":0,
			"byteLength":384,
			"byteOffset":255428
		},
		{
			"buffer":0,
			"byteLength":896,
			"byteOffset":255812
		}
	],
	"buffers":[
		{
			"byteLength":256708,
			"uri":"world-f9a97d2dedcab5271bc7f65ccce1e1cc.bin"
		}
	]
}
