{
	"asset":{
		"generator":"Khronos glTF Blender I/O v5.0.21",
		"version":"2.0"
	},
	"scene":0,
	"scenes":[
		{
			"name":"Scene",
			"nodes":[
				0,
				1
			]
		}
	],
	"nodes":[
		{
			"mesh":0,
			"name":"rock_bottom-col"
		},
		{
			"mesh":1,
			"name":"rock_top-col"
		}
	],
	"materials":[
		{
			"doubleSided":true,
			"name":"texture",
			"pbrMetallicRoughness":{
				"baseColorTexture":{
					"index":0
				},
				"metallicFactor":0
			}
		}
	],
	"meshes":[
		{
			"name":"Cube.001",
			"primitives":[
				{
					"attributes":{
						"POSITION":0,
						"NORMAL":1,
						"TEXCOORD_0":2
					},
					"indices":3,
					"material":0
				}
			]
		},
		{
			"name":"Cube.002",
			"primitives":[
				{
					"attributes":{
						"POSITION":4,
						"NORMAL":5,
						"TEXCOORD_0":6
					},
					"indices":7,
					"material":0
				}
			]
		}
	],
	"textures":[
		{
			"sampler":0,
			"source":0
		}
	],
	"images":[
		{
			"mimeType":"image/png",
			"name":"texture",
			"uri":"texture.png"
		}
	],
	"accessors":[
		{
			"bufferView":0,
			"componentType":5126,
			"count":120,
			"max":[
				16.227516174316406,
				0,
				13.94599723815918
			],
			"min":[
				-15.649045944213867,
				-35.85921096801758,
				-13.94599723815918
			],
			"type":"VEC3"
		},
		{
			"bufferView":1,
			"componentType":5126,
			"count":120,
			"type":"VEC3"
		},
		{
			"bufferView":2,
			"componentType":5126,
			"count":120,
			"type":"VEC2"
		},
		{
			"bufferView":3,
			"componentType":5123,
			"count":186,
			"type":"SCALAR"
		},
		{
			"bufferView":4,
			"componentType":5126,
			"count":232,
			"max":[
				9.712624549865723,
				11.12304401397705,
				8.104169845581055
			],
			"min":[
				-9.306497573852539,
				-0.13991650938987732,
				-8.104169845581055
			],
			"type":"VEC3"
		},
		{
			"bufferView":5,
			"componentType":5126,
			"count":232,
			"type":"VEC3"
		},
		{
			"bufferView":6,
			"componentType":5126,
			"count":232,
			"type":"VEC2"
		},
		{
			"bufferView":7,
			"componentType":5123,
			"count":336,
			"type":"SCALAR"
		}
	],
	"bufferViews":[
		{
			"buffer":0,
			"byteLength":1440,
			"byteOffset":0,
			"target":34962
		},
		{
			"buffer":0,
			"byteLength":1440,
			"byteOffset":1440,
			"target":34962
		},
		{
			"buffer":0,
			"byteLength":960,
			"byteOffset":2880,
			"target":34962
		},
		{
			"buffer":0,
			"byteLength":372,
			"byteOffset":3840,
			"target":34963
		},
		{
			"buffer":0,
			"byteLength":2784,
			"byteOffset":4212,
			"target":34962
		},
		{
			"buffer":0,
			"byteLength":2784,
			"byteOffset":6996,
			"target":34962
		},
		{
			"buffer":0,
			"byteLength":1856,
			"byteOffset":9780,
			"target":34962
		},
		{
			"buffer":0,
			"byteLength":672,
			"byteOffset":11636,
			"target":34963
		}
	],
	"samplers":[
		{
			"magFilter":9728,
			"minFilter":9984
		}
	],
	"buffers":[
		{
			"byteLength":12308,
			"uri":"rock.bin"
		}
	]
}
